<?xml version="1.0" encoding="iso-8859-1"?>
<!-- Generator: Adobe Illustrator 19.0.0, SVG Export Plug-In . SVG Version: 6.00 Build 0)  -->
<svg version="1.1" id="Capa_1" xmlns="http://www.w3.org/2000/svg" xmlns:xlink="http://www.w3.org/1999/xlink" x="0px" y="0px"
	 viewBox="0 0 512 512" style="enable-background:new 0 0 512 512;" xml:space="preserve">
<g>
	<g>
		<path d="M365.572,371.458c12.795-22.146,19.882-49.171,20.801-79.75c17.735-3.499,31.155-19.166,31.155-37.913
			c0-16.932-10.951-31.347-26.138-36.559l-7.892-72.568c-1.427-13.125-10.57-23.822-22.894-27.472
			c-5.657-13.83-14.114-26.581-24.731-37.198c-7.729-7.729-16.384-14.193-25.709-19.303c0.232-2.05,0.351-4.115,0.351-6.18
			C310.515,24.455,286.059,0,255.999,0c-30.06,0-54.515,24.455-54.515,54.515c0,2.066,0.122,4.139,0.355,6.203
			c-22.406,12.229-40.44,31.937-50.433,56.474c-12.332,3.646-21.483,14.345-22.91,27.477l-7.892,72.57
			c-15.185,5.213-26.132,19.626-26.132,36.557c0,18.745,13.417,34.411,31.151,37.912c0.193,6.416,0.651,12.711,1.379,18.784
			c0.463,3.863,3.745,6.7,7.541,6.7c0.302,0,0.607-0.018,0.914-0.055c4.17-0.5,7.145-4.286,6.645-8.455
			c-0.914-7.629-1.378-15.651-1.378-23.842v-59.901c5.519-0.749,11.044-1.445,16.573-2.086v89.809
			c0,13.542,11.018,24.56,24.56,24.56s24.56-11.018,24.56-24.56c0-5.156,4.195-9.351,9.352-9.351h80.466
			c5.156,0,9.352,4.195,9.352,9.351c0,13.542,11.017,24.56,24.56,24.56c13.543,0,24.56-11.018,24.56-24.56v-89.809
			c5.529,0.642,11.053,1.337,16.574,2.086v59.9c0,41.361-11.734,75.733-33.936,99.402c-20.309,21.652-49.197,33.576-81.341,33.576
			c-53.198,0-93.886-31.268-108.839-83.643c-1.153-4.038-5.362-6.376-9.399-5.224c-4.038,1.153-6.377,5.361-5.224,9.399
			c3.41,11.942,8.104,23.013,13.927,33.077c-30.102,29.416-47.258,69.937-47.258,112.166v20.276c0,4.199,3.405,7.604,7.604,7.604
			s7.604-3.405,7.604-7.604v-20.277c0-37.151,14.704-72.84,40.598-99.217c5.923,7.892,12.656,14.97,20.152,21.091l49.512,65.596
			c1.441,1.909,3.69,3.023,6.068,3.023c0.121,0,0.241-0.003,0.362-0.009c2.51-0.12,4.799-1.471,6.116-3.611l11.174-18.165v52.098
			c0,4.199,3.405,7.604,7.604,7.604c4.2,0,7.604-3.405,7.604-7.604v-52.098l11.173,18.165c1.317,2.14,3.606,3.492,6.116,3.611
			c0.121,0.006,0.241,0.009,0.362,0.009c2.378,0,4.627-1.114,6.068-3.023l49.541-65.634c4.076-3.316,7.94-6.912,11.568-10.781
			c3.042-3.242,5.905-6.659,8.594-10.236c26.161,26.634,40.558,61.799,40.558,99.182v20.276c0,4.199,3.404,7.604,7.604,7.604
			s7.604-3.405,7.604-7.604v-20.276c0-41.88-16.31-81.255-45.924-110.869C366.442,372.293,366.005,371.881,365.572,371.458z
			 M386.485,231.627c9.203,3.166,15.835,11.904,15.835,22.167s-6.634,19.002-15.835,22.167V231.627z M125.518,275.962
			c-9.203-3.166-15.836-11.904-15.836-22.168c0-10.263,6.634-19.002,15.836-22.167V275.962z M256.002,15.208
			c21.472,0,38.966,17.308,39.291,38.702c-12.409-4.595-25.665-6.999-39.291-6.999c-13.704,0-26.967,2.462-39.293,7.026
			C217.021,32.53,234.521,15.208,256.002,15.208z M330.144,322.012c-5.156,0-9.352-4.195-9.352-9.352
			c0-13.542-11.017-24.559-24.56-24.559h-80.466c-13.542,0-24.56,11.017-24.56,24.559c0,5.156-4.195,9.352-9.352,9.352
			s-9.352-4.195-9.352-9.352v-91.436c55.551-5.443,111.439-5.443,166.991,0.001v91.435h0.002
			C339.496,317.817,335.301,322.012,330.144,322.012z M136.677,210.135l6.939-63.823c0.852-7.837,6.888-14.049,14.679-15.105
			c42.949-5.825,86.639-7.806,129.861-5.888c4.198,0.185,7.748-3.064,7.932-7.259c0.187-4.195-3.063-7.747-7.259-7.933
			c-39.725-1.761-79.841-0.287-119.444,4.362c16.657-31.847,49.791-52.367,86.616-52.367c26.109,0,50.656,10.168,69.12,28.632
			c6.98,6.98,12.876,15.028,17.457,23.734c-9.212-1.082-18.464-2.009-27.647-2.741c-4.185-0.334-7.85,2.79-8.184,6.975
			c-0.334,4.186,2.789,7.85,6.976,8.185c13.291,1.06,26.743,2.507,39.979,4.302c7.79,1.056,13.827,7.268,14.68,15.107l6.941,63.821
			C296.092,199.19,215.908,199.19,136.677,210.135z M230.106,453.009l-21.386-28.333c10.718,4.026,22.145,6.619,34.064,7.722
			L230.106,453.009z M281.897,453.009l-12.668-20.598c11.93-1.114,23.369-3.744,34.091-7.784L281.897,453.009z"/>
	</g>
</g>
<g>
	<g>
		<path d="M197.239,243.689c-4.199,0-7.604,3.405-7.604,7.604v15.808c0,4.199,3.405,7.604,7.604,7.604s7.604-3.405,7.604-7.604
			v-15.808C204.843,247.094,201.439,243.689,197.239,243.689z"/>
	</g>
</g>
<g>
	<g>
		<path d="M314.758,243.689c-4.2,0-7.604,3.405-7.604,7.604v15.808c0,4.199,3.405,7.604,7.604,7.604c4.2,0,7.604-3.405,7.604-7.604
			v-15.808C322.362,247.094,318.958,243.689,314.758,243.689z"/>
	</g>
</g>
<g>
	<g>
		<path d="M266.752,162.998l5.609-5.609c2.97-2.97,2.97-7.783,0-10.753c-2.97-2.969-7.783-2.97-10.754,0l-5.609,5.609l-5.609-5.609
			c-2.97-2.97-7.784-2.97-10.753,0c-2.97,2.97-2.97,7.784,0,10.753l5.609,5.609l-5.609,5.609c-2.97,2.97-2.97,7.783,0,10.753
			c1.484,1.485,3.431,2.227,5.376,2.227s3.892-0.742,5.376-2.227l5.609-5.609l5.608,5.609c1.485,1.485,3.432,2.227,5.378,2.227
			s3.892-0.742,5.378-2.227c2.97-2.97,2.97-7.784,0-10.753L266.752,162.998z"/>
	</g>
</g>
<g>
	<g>
		<path d="M284.021,321.94c-2.969-2.97-7.783-2.969-10.753,0c-4.612,4.612-10.744,7.152-17.265,7.152
			c-6.522,0-12.654-2.54-17.266-7.152c-2.97-2.97-7.784-2.97-10.753,0c-2.97,2.97-2.97,7.783,0,10.753
			c7.484,7.484,17.435,11.607,28.02,11.607c10.582,0.001,20.534-4.121,28.018-11.606
			C286.991,329.724,286.991,324.909,284.021,321.94z"/>
	</g>
</g>
<g>
</g>
<g>
</g>
<g>
</g>
<g>
</g>
<g>
</g>
<g>
</g>
<g>
</g>
<g>
</g>
<g>
</g>
<g>
</g>
<g>
</g>
<g>
</g>
<g>
</g>
<g>
</g>
<g>
</g>
</svg>
